<svg width="512" height="512" viewBox="0 0 512 512" fill="none" xmlns="http://www.w3.org/2000/svg">
  <rect width="512" height="512" rx="96" fill="#10140F"/>
  <circle cx="256" cy="214" r="116" fill="#D8F7C4"/>
  <path d="M147 226c21-65 72-103 135-103 45 0 78 18 98 45-2-66-50-105-126-105-81 0-134 51-138 129l31 34Z" fill="#2D5B45"/>
  <path d="M137 303c34 74 85 111 152 111 56 0 98-25 126-76-21-44-69-72-145-72-55 0-99 12-133 37Z" fill="#6EE7B7"/>
  <circle cx="214" cy="221" r="14" fill="#10140F"/>
  <circle cx="301" cy="221" r="14" fill="#10140F"/>
  <path d="M222 281c24 19 47 19 70 0" stroke="#10140F" stroke-width="18" stroke-linecap="round"/>
  <path d="M107 387c31-65 83-101 149-101 68 0 120 36 149 101-38 39-87 58-149 58-61 0-111-19-149-58Z" fill="#214536"/>
  <path d="M256 315l35 56-35 28-35-28 35-56Z" fill="#ECFCCB"/>
  <circle cx="401" cy="128" r="24" fill="#F8C14A"/>
  <circle cx="118" cy="146" r="14" fill="#F97316"/>
</svg>
